<svg width="2568" height="1030" viewBox="0 0 2568 1030" fill="none" xmlns="http://www.w3.org/2000/svg">
<path d="M1275.95 635H1129.46V415.273H1181.03V590.029H1275.95V635ZM1359.01 637.93C1343.77 637.93 1330.15 634.658 1318.14 628.115C1306.22 621.475 1296.85 612.441 1290.01 601.016C1283.18 589.492 1279.76 576.406 1279.76 561.758C1279.76 547.109 1283.18 534.072 1290.01 522.646C1296.85 511.123 1306.22 502.09 1318.14 495.547C1330.15 488.906 1343.77 485.586 1359.01 485.586C1374.24 485.586 1387.77 488.906 1399.58 495.547C1411.5 502.09 1420.82 511.123 1427.56 522.646C1434.4 534.072 1437.81 547.109 1437.81 561.758C1437.81 576.406 1434.4 589.492 1427.56 601.016C1420.82 612.441 1411.5 621.475 1399.58 628.115C1387.77 634.658 1374.24 637.93 1359.01 637.93ZM1358.86 594.863C1364.52 594.863 1369.6 593.447 1374.09 590.615C1378.59 587.783 1382.1 583.828 1384.64 578.75C1387.28 573.672 1388.6 567.91 1388.6 561.465C1388.6 555.215 1387.28 549.6 1384.64 544.619C1382.1 539.639 1378.59 535.732 1374.09 532.9C1369.6 530.068 1364.52 528.652 1358.86 528.652C1353.1 528.652 1347.97 530.068 1343.48 532.9C1338.99 535.732 1335.42 539.639 1332.79 544.619C1330.25 549.6 1328.98 555.215 1328.98 561.465C1328.98 567.91 1330.25 573.672 1332.79 578.75C1335.42 583.828 1338.99 587.783 1343.48 590.615C1347.97 593.447 1353.1 594.863 1358.86 594.863ZM1521.46 637.344C1508.47 637.344 1496.9 634.072 1486.74 627.529C1476.58 620.889 1468.58 611.855 1462.72 600.43C1456.96 589.004 1454.07 576.016 1454.07 561.465C1454.07 546.816 1456.96 533.828 1462.72 522.5C1468.58 511.074 1476.58 502.09 1486.74 495.547C1496.9 488.906 1508.47 485.586 1521.46 485.586C1531.52 485.586 1540.74 487.588 1549.14 491.592C1557.54 495.498 1564.77 501.016 1570.82 508.145L1573.02 488.516H1615.06V630.898C1615.06 646.914 1611.4 660.977 1604.07 673.086C1596.85 685.195 1586.64 694.57 1573.46 701.211C1560.28 707.852 1544.85 711.172 1527.17 711.172C1502.95 711.172 1480.69 703.75 1460.37 688.906L1479.42 649.502C1492.31 661.904 1507.05 668.105 1523.65 668.105C1532.25 668.105 1539.77 666.445 1546.21 663.125C1552.76 659.902 1557.83 655.312 1561.45 649.355C1565.16 643.398 1567.01 636.562 1567.01 628.848V618.74C1561.15 624.6 1554.37 629.189 1546.65 632.51C1538.94 635.732 1530.54 637.344 1521.46 637.344ZM1535.23 594.424C1541.18 594.424 1546.55 593.154 1551.34 590.615C1556.12 588.076 1559.93 584.512 1562.77 579.922C1565.6 575.332 1567.01 570.156 1567.01 564.395V558.242C1567.01 552.48 1565.55 547.354 1562.62 542.861C1559.79 538.369 1555.98 534.854 1551.19 532.314C1546.41 529.775 1541.09 528.506 1535.23 528.506C1529.17 528.506 1523.7 529.922 1518.82 532.754C1513.94 535.586 1510.08 539.492 1507.25 544.473C1504.51 549.453 1503.15 555.117 1503.15 561.465C1503.15 567.812 1504.51 573.477 1507.25 578.457C1510.08 583.438 1513.94 587.344 1518.82 590.176C1523.7 593.008 1529.17 594.424 1535.23 594.424ZM1746.6 635H1695.04V460.244H1632.2V415.273H1809.45V460.244H1746.6V635ZM1875.95 635H1827.9V488.516H1869.65L1871.26 512.686C1876.14 504.092 1882.64 497.451 1890.74 492.764C1898.85 487.979 1908.13 485.586 1918.58 485.586C1921.8 485.586 1925.07 485.83 1928.39 486.318C1931.81 486.807 1935.23 487.539 1938.64 488.516L1932.79 531.729C1925.95 529.58 1919.55 528.506 1913.6 528.506C1905.98 528.506 1899.34 530.166 1893.67 533.486C1888.01 536.807 1883.62 541.445 1880.49 547.402C1877.46 553.359 1875.95 560.391 1875.95 568.496V635ZM2086.45 635H2044.41L2041.92 618.301C2036.54 624.551 2030 629.385 2022.29 632.803C2014.57 636.221 2006.08 637.93 1996.8 637.93C1986.64 637.93 1977.61 635.977 1969.7 632.07C1961.79 628.164 1955.54 622.793 1950.95 615.957C1946.46 609.023 1944.21 601.162 1944.21 592.373C1944.21 583.096 1946.65 574.941 1951.54 567.91C1956.52 560.879 1963.35 555.361 1972.04 551.357C1980.73 547.354 1990.65 545.352 2001.78 545.352C2008.13 545.352 2014.38 546.035 2020.53 547.402C2026.78 548.77 2032.74 550.674 2038.4 553.115V550.039C2038.4 544.863 2036.84 540.371 2033.71 536.562C2030.59 532.754 2026.34 529.775 2020.97 527.627C2015.6 525.381 2009.49 524.258 2002.66 524.258C1995.92 524.258 1989.38 525.332 1983.03 527.48C1976.68 529.531 1970.87 532.51 1965.6 536.416L1953 500.527C1963.35 495.547 1973.65 491.836 1983.91 489.395C1994.26 486.855 2004.22 485.586 2013.79 485.586C2028.54 485.586 2041.33 488.467 2052.17 494.229C2063.11 499.99 2071.55 508.145 2077.51 518.691C2083.47 529.141 2086.45 541.543 2086.45 555.898V635ZM2007.64 602.041C2012.62 602.041 2017.4 600.967 2021.99 598.818C2026.68 596.572 2030.49 593.643 2033.42 590.029C2036.45 586.416 2038.01 582.559 2038.11 578.457V577.871C2034.2 575.332 2029.86 573.428 2025.07 572.158C2020.29 570.791 2015.5 570.107 2010.71 570.107C2003.59 570.107 1997.87 571.572 1993.58 574.502C1989.28 577.334 1987.13 581.143 1987.13 585.928C1987.13 588.955 1988.01 591.738 1989.77 594.277C1991.53 596.719 1993.97 598.623 1997.09 599.99C2000.22 601.357 2003.73 602.041 2007.64 602.041ZM2248.75 610.977C2241.62 619.375 2232.79 625.967 2222.24 630.752C2211.69 635.537 2200.02 637.93 2187.23 637.93C2171.99 637.93 2158.37 634.658 2146.36 628.115C2134.45 621.475 2125.07 612.441 2118.23 601.016C2111.4 589.492 2107.98 576.406 2107.98 561.758C2107.98 547.109 2111.4 534.072 2118.23 522.646C2125.07 511.123 2134.45 502.09 2146.36 495.547C2158.37 488.906 2171.99 485.586 2187.23 485.586C2199.92 485.586 2211.5 487.979 2221.95 492.764C2232.49 497.451 2241.33 503.896 2248.46 512.1L2220.33 541.836C2216.92 537.734 2212.52 534.512 2207.15 532.168C2201.88 529.824 2196.36 528.652 2190.6 528.652C2184.15 528.652 2178.39 530.068 2173.31 532.9C2168.33 535.635 2164.38 539.492 2161.45 544.473C2158.62 549.453 2157.2 555.117 2157.2 561.465C2157.2 568.008 2158.62 573.818 2161.45 578.896C2164.38 583.877 2168.33 587.783 2173.31 590.615C2178.39 593.447 2184.15 594.863 2190.6 594.863C2196.36 594.863 2201.93 593.691 2207.3 591.348C2212.67 589.004 2217.01 585.781 2220.33 581.68L2248.75 610.977ZM2320.09 635H2272.04V415.273H2320.09V543.887L2335.32 525.283L2370.33 488.516H2430.54L2367.84 554.287L2437.13 635H2375.17L2334.88 583.438L2320.09 595.596V635ZM2504.07 635H2456.03V488.516H2497.78L2499.39 512.686C2504.27 504.092 2510.76 497.451 2518.87 492.764C2526.97 487.979 2536.25 485.586 2546.7 485.586C2549.92 485.586 2553.2 485.83 2556.52 486.318C2559.93 486.807 2563.35 487.539 2566.77 488.516L2560.91 531.729C2554.07 529.58 2547.68 528.506 2541.72 528.506C2534.1 528.506 2527.46 530.166 2521.8 533.486C2516.13 536.807 2511.74 541.445 2508.62 547.402C2505.59 553.359 2504.07 560.391 2504.07 568.496V635Z" fill="white"/>
<g filter="url(#filter0_d_39_34)">
<path d="M706 706V915C706 942.614 683.614 965 656 965L50 965C22.3858 965 -1.20706e-06 942.614 0 915L6.95011e-06 756C8.15717e-06 728.386 22.3858 706 50 706H706Z" fill="#18307E"/>
<path d="M259 259L259 50C259 22.3858 281.386 -3.62117e-06 309 0L915 7.94673e-05C942.614 8.30885e-05 965 22.3859 965 50.0001L965 209C965 236.614 942.614 259 915 259L259 259Z" fill="#2342A9"/>
<path d="M9.13568e-06 309C9.13568e-06 281.386 22.3858 259 50 259H259L259 915C259 942.614 236.614 965 209 965H50C22.3858 965 -1.20706e-06 942.614 0 915L9.13568e-06 309Z" fill="#18307E"/>
<path d="M965 656C965 683.614 942.614 706 915 706H706L706 50C706 22.3858 728.386 3.27539e-06 756 5.68951e-06L915 7.94673e-05C942.614 8.30885e-05 965 22.3859 965 50.0001L965 656Z" fill="#2342A9"/>
</g>
<defs>
<filter id="filter0_d_39_34" x="0" y="0" width="1024.4" height="1029.4" filterUnits="userSpaceOnUse" color-interpolation-filters="sRGB">
<feFlood flood-opacity="0" result="BackgroundImageFix"/>
<feColorMatrix in="SourceAlpha" type="matrix" values="0 0 0 0 0 0 0 0 0 0 0 0 0 0 0 0 0 0 127 0" result="hardAlpha"/>
<feOffset dx="33" dy="38"/>
<feGaussianBlur stdDeviation="13.2"/>
<feComposite in2="hardAlpha" operator="out"/>
<feColorMatrix type="matrix" values="0 0 0 0 0 0 0 0 0 0 0 0 0 0 0 0 0 0 0.32 0"/>
<feBlend mode="normal" in2="BackgroundImageFix" result="effect1_dropShadow_39_34"/>
<feBlend mode="normal" in="SourceGraphic" in2="effect1_dropShadow_39_34" result="shape"/>
</filter>
</defs>
</svg>
